# xmcd
#
# Track frame offsets:
#	150
#	15636
#	33262
#	51413
#	67275
#	84255
#	99764
#	116663
#	131633
#	148890
#
# Disc length: 2196 seconds
#
# Revision: 0
# Processed by: cddbd v1.5.2PL0 Copyright (c) Steve Scherf et al.
# Submitted via: EasyCDDAExtractor 16.0.0.1
#
DISCID=8908920a
DTITLE=Presuntos Implicados - Banda Sonora
DYEAR=2011
DGENRE=Latin
TTITLE0=I Say a Little Prayer [Vuelvo a Pensar En Ti] [La Boda De Mi Mejor Ami
TTITLE0=g
TTITLE1=She [Notting Hill]
TTITLE2=How Deep is Your Love [Si Es Cierto Tu Amor] [Saturday Night Fever]
TTITLE3=Nature Boy [Cuando Él Llegó] [Moulin Rouge]
TTITLE4=Loving You [Solo Tú] [Bridget Jones 2]
TTITLE5=The Way We Were [Tal Y Como Fue] [Tal Como Éramos]
TTITLE6=Up Where We Belong [Donde Nos Lleve El Corazón] [Oficial Y Caballero]
TTITLE7=Mañana De Carnaval [Orfeo Negro]
TTITLE8=Love is All Around [El Amor Me Envuelve] [Cuatro Bodas Y Un Funeral]
TTITLE9=Moon River [Desayuno Con Diamantes]
EXTD=
EXTT0=
EXTT1=
EXTT2=
EXTT3=
EXTT4=
EXTT5=
EXTT6=
EXTT7=
EXTT8=
EXTT9=
PLAYORDER=
